<svg xmlns="http://www.w3.org/2000/svg" id="Capa_1" data-name="Capa 1" viewBox="0 0 267.91 71.17"><defs><style>.cls-1,.cls-3{fill:#fff}.cls-3{stroke:#fff;stroke-linejoin:round}</style></defs><path d="M.81 45.41s7.76-8.55 1.58-19.96c0 0 9.74 10.69-1.58 19.96Z" style="stroke:#fff;stroke-miterlimit:10;fill:#fff"/><path d="M12.29 50.87s11.88-12.99 2.53-31.21c0 0 14.89 16.79-2.53 31.21ZM23.38 59.27s17.58-20.12 3.48-48.16c0 0 22.65 25.5-3.48 48.16ZM38.75 66.4s22.34-29.78 4.91-62.25c0 0 28.35 33.9-4.91 62.25ZM54.91 70.67S81.2 39.63 60.45.5c0 0 32.16 37.86-5.54 70.17ZM73.28 66.4s24.08-23.92 4.59-54.18c0 0 31.68 29.78-4.59 54.18ZM104.49 26.95s-4.91 7.29-8.87 16.79 0 21.07 0 21.07 4.91.79 14.73.48 1.43-4.12 1.43-4.12c16 3.01 16.63-2.85 16.63-2.85-1.9-24.71-23.92-31.36-23.92-31.36Zm8.16 23.6c-1.79 0-3.25-1.7-3.25-3.8s1.45-3.8 3.25-3.8 3.25 1.7 3.25 3.8-1.45 3.8-3.25 3.8Z" class="cls-3"/><path d="M147.66 65.08c-.44 0-.92 0-1.45-.02-.53-.02-1.07-.04-1.63-.09-.56-.04-1.13-.1-1.72-.15l2.2-3.61 1.34.18c.45.06.89.1 1.32.11.42.02.8.02 1.12.02 1.23 0 2.21-.25 2.95-.75.73-.5 1.27-1.27 1.61-2.31.34-1.04.56-2.35.66-3.94.1-1.58.15-3.45.15-5.59 0-1.99-.04-3.73-.13-5.21s-.31-2.73-.66-3.74c-.35-1.01-.88-1.77-1.58-2.27-.7-.5-1.67-.75-2.9-.75-.56 0-1.21.04-1.96.13s-1.53.22-2.35.4l-1.89-3.61c1.03-.15 2.02-.25 2.99-.31.97-.06 1.85-.09 2.64-.09 2.11 0 3.84.26 5.19.79 1.35.53 2.4 1.39 3.15 2.57s1.27 2.77 1.56 4.75c.29 1.98.44 4.42.44 7.33 0 2.35-.09 4.41-.26 6.18-.18 1.77-.48 3.29-.92 4.55-.44 1.26-1.07 2.3-1.89 3.1-.82.81-1.88 1.39-3.17 1.76-1.29.37-2.89.55-4.8.55Zm-4.8-.26c.03-1.2.06-2.7.09-4.49s.05-3.69.07-5.7c.01-2.01.02-3.92.02-5.74s-.02-3.54-.04-5.43c-.03-1.89-.07-3.68-.11-5.37-.04-1.69-.1-3.09-.15-4.2l4.66.31c0 .82 0 1.71-.02 2.66-.02.95-.03 1.95-.04 2.99-.02 1.04-.02 2.09-.02 3.15s0 2.09-.02 3.1c-.02 1.01-.02 1.96-.02 2.84v2.62c0 1.01 0 2.09.02 3.23.01 1.14.03 2.31.04 3.5.01 1.19.03 2.34.04 3.45.01 1.11.04 2.13.07 3.04l-4.58.04ZM170.01 65.16c-1.61 0-2.91-.4-3.89-1.19-.98-.79-1.72-1.86-2.22-3.21-.41-1.06-.69-2.24-.84-3.56-.15-1.32-.22-2.7-.22-4.14 0-1.29.07-2.51.22-3.65.15-1.14.4-2.2.75-3.17.53-1.41 1.32-2.54 2.38-3.39 1.06-.85 2.45-1.28 4.18-1.28 1.58 0 2.82.34 3.72 1.01.89.68 1.53 1.6 1.91 2.77.38 1.17.57 2.51.57 4 0 .79-.04 1.6-.13 2.42-.09.82-.21 1.67-.35 2.55l-3.78-2.82c.06-.53.11-1.04.15-1.54.04-.5.07-.97.07-1.41 0-.76-.07-1.44-.22-2.02-.15-.59-.39-1.04-.73-1.36-.34-.32-.83-.48-1.47-.48-.7 0-1.26.24-1.67.73s-.73 1.11-.97 1.87c-.21.76-.34 1.61-.4 2.55-.06.94-.09 1.92-.09 2.95 0 .73 0 1.44.02 2.13.01.69.04 1.34.07 1.96.03.62.1 1.2.22 1.76.18 1 .48 1.79.92 2.38.44.59 1.08.88 1.94.88.65 0 1.15-.14 1.52-.42.37-.28.64-.65.81-1.12.18-.47.26-.97.26-1.5 0-.26-.02-.52-.04-.77a3.72 3.72 0 0 0-.18-.77h3.92c.06.29.1.58.13.86a8 8 0 0 1 .04.86c0 1.2-.26 2.27-.77 3.19s-1.25 1.64-2.22 2.16c-.97.51-2.17.77-3.61.77Zm-5.81-10.52-.13-3.3 11.53-.09.48 3.08c-1.03 0-1.97 0-2.84.02-.87.02-1.83.04-2.88.07l-3.19.09c-1.07.03-2.06.07-2.97.13ZM187.79 65.16c-1.73 0-3.09-.37-4.07-1.1-.98-.73-1.71-1.75-2.18-3.04-.38-1.03-.63-2.22-.75-3.59-.12-1.36-.18-2.82-.18-4.38 0-1.32.07-2.56.2-3.72.13-1.16.37-2.21.73-3.15.32-.94.78-1.75 1.36-2.44.59-.69 1.3-1.22 2.16-1.61.85-.38 1.88-.57 3.08-.57 1.61 0 2.88.32 3.81.95.92.63 1.58 1.51 1.98 2.64.4 1.13.59 2.47.59 4.03 0 .65-.02 1.3-.07 1.96-.04.66-.12 1.34-.22 2.05-.1.7-.21 1.44-.33 2.2l-3.83-2.55c.09-.53.17-1.04.24-1.54a19.277 19.277 0 0 0 .19-2.81c0-1.17-.18-2.1-.55-2.77-.37-.67-1.03-1.01-2-1.01-.85 0-1.5.32-1.94.95-.44.63-.75 1.5-.92 2.62-.09.44-.15.91-.2 1.41-.04.5-.08 1-.11 1.52-.03.51-.04 1.05-.04 1.61 0 .85 0 1.67.02 2.44.01.78.04 1.49.09 2.13.04.65.11 1.23.2 1.76.21.88.53 1.56.97 2.05s1.07.73 1.89.73c.94 0 1.6-.21 1.98-.62.38-.41.57-.95.57-1.63 0-.2-.02-.43-.07-.68-.04-.25-.1-.49-.15-.73l3.92.26c.06.24.09.47.11.7.01.24.02.47.02.7 0 .97-.24 1.86-.73 2.66-.48.81-1.2 1.44-2.16 1.89-.95.45-2.16.68-3.63.68Zm-5.81-9.42-.09-3.3 11.48-.09.53 3.04c-1.06 0-2.02.02-2.88.04-.87.03-1.83.05-2.88.07-1.06.02-2.12.04-3.19.09-1.07.04-2.06.1-2.97.15ZM199.14 70.71c.06-1.29.11-2.47.15-3.54s.08-2.27.11-3.61l.09-4.09c.03-1.39.04-2.72.04-3.98s0-2.43-.02-3.59c-.02-1.16-.04-2.27-.09-3.34-.04-1.07-.08-2.11-.11-3.12-.03-1.01-.07-2-.13-2.97l4.36-.88v3.26c.26-.56.6-1.08 1.01-1.58.41-.5.92-.89 1.52-1.19.6-.29 1.28-.44 2.05-.44 1.03 0 1.88.19 2.57.57.69.38 1.24.92 1.65 1.63.41.7.72 1.54.92 2.51.15.62.26 1.3.33 2.05.07.75.12 1.53.15 2.33.03.81.04 1.67.04 2.57s-.04 1.86-.11 2.75c-.07.9-.18 1.75-.31 2.57-.13.82-.33 1.58-.59 2.29-.44 1.29-1.09 2.33-1.96 3.1-.87.78-2.03 1.17-3.5 1.17-.65 0-1.2-.08-1.67-.24-.47-.16-.87-.39-1.19-.68-.32-.29-.6-.62-.84-.97l.13 7.79-4.62-.35Zm4.44-15.62c0 1.32.1 2.5.29 3.54.19 1.04.51 1.87.97 2.49.45.62 1.03.92 1.74.92.53 0 .97-.13 1.32-.4.35-.26.65-.64.88-1.14.23-.5.41-1.06.53-1.67.18-.79.28-1.68.31-2.66.03-.98.04-1.96.04-2.93v-2.05c0-.63 0-1.22-.02-1.78s-.07-1.07-.15-1.54c-.09-.94-.32-1.66-.68-2.18-.37-.51-.96-.77-1.78-.77-.76 0-1.39.36-1.89 1.08-.5.72-.87 1.66-1.12 2.82-.25 1.16-.39 2.41-.42 3.76v2.51ZM225.01 65.16c-1.61 0-2.91-.4-3.89-1.19-.98-.79-1.72-1.86-2.22-3.21-.41-1.06-.69-2.24-.84-3.56-.15-1.32-.22-2.7-.22-4.14 0-1.29.07-2.51.22-3.65.15-1.14.4-2.2.75-3.17.53-1.41 1.32-2.54 2.38-3.39 1.06-.85 2.45-1.28 4.18-1.28 1.58 0 2.82.34 3.72 1.01.89.68 1.53 1.6 1.91 2.77.38 1.17.57 2.51.57 4 0 .79-.04 1.6-.13 2.42-.09.82-.21 1.67-.35 2.55l-3.78-2.82c.06-.53.11-1.04.15-1.54.04-.5.07-.97.07-1.41 0-.76-.07-1.44-.22-2.02-.15-.59-.39-1.04-.73-1.36-.34-.32-.83-.48-1.47-.48-.7 0-1.26.24-1.67.73s-.73 1.11-.97 1.87c-.21.76-.34 1.61-.4 2.55-.06.94-.09 1.92-.09 2.95 0 .73 0 1.44.02 2.13.01.69.04 1.34.07 1.96.03.62.1 1.2.22 1.76.18 1 .48 1.79.92 2.38.44.59 1.08.88 1.94.88.65 0 1.15-.14 1.52-.42.37-.28.64-.65.81-1.12.18-.47.26-.97.26-1.5 0-.26-.02-.52-.04-.77a3.72 3.72 0 0 0-.18-.77h3.92c.06.29.1.58.13.86a8 8 0 0 1 .04.86c0 1.2-.26 2.27-.77 3.19s-1.25 1.64-2.22 2.16c-.97.51-2.17.77-3.61.77Zm-5.81-10.52-.13-3.3 11.53-.09.48 3.08c-1.03 0-1.97 0-2.84.02-.87.02-1.83.04-2.88.07l-3.19.09c-1.07.03-2.06.07-2.97.13ZM242.61 65.12c-1.7 0-3.03-.44-3.98-1.32-.95-.88-1.67-2.04-2.13-3.48-.29-.97-.51-2.05-.64-3.23-.13-1.19-.2-2.38-.2-3.59 0-1.5.08-2.9.24-4.2.16-1.3.46-2.47.9-3.5.38-.88.85-1.63 1.41-2.24.56-.62 1.25-1.09 2.09-1.43.84-.34 1.83-.51 2.97-.51 1.5 0 2.7.32 3.61.97.91.65 1.56 1.54 1.96 2.68s.59 2.44.59 3.87c0 .47-.02.95-.07 1.45-.04.5-.1 1-.15 1.5l-4.05-.09c.06-.59.1-1.14.13-1.67s.04-1.04.04-1.54c0-.79-.07-1.5-.2-2.13-.13-.63-.37-1.11-.7-1.45-.34-.34-.83-.51-1.47-.51-.76 0-1.36.26-1.78.79-.43.53-.74 1.25-.95 2.16-.18.76-.29 1.65-.35 2.66-.06 1.01-.09 2.05-.09 3.1 0 .65.01 1.27.04 1.87.03.6.07 1.18.11 1.74.04.56.09 1.07.15 1.54.2 1 .52 1.8.95 2.42.42.62 1.03.92 1.83.92.64 0 1.17-.14 1.56-.42.4-.28.68-.65.86-1.1.18-.45.26-.96.26-1.52 0-.23-.02-.48-.04-.75-.03-.26-.07-.53-.13-.79l4-.04c.03.24.05.46.07.68.01.22.02.43.02.64 0 1.32-.25 2.46-.75 3.43-.5.97-1.25 1.72-2.27 2.27-1.01.54-2.3.81-3.85.81ZM260.47 65.08c-1.79 0-3.17-.45-4.14-1.36-.97-.91-1.66-2.13-2.07-3.65-.18-.67-.32-1.4-.42-2.18-.1-.78-.18-1.58-.22-2.42s-.07-1.71-.07-2.62c0-1.26.07-2.45.2-3.56.13-1.11.34-2.13.64-3.04.5-1.47 1.28-2.63 2.33-3.5 1.06-.86 2.51-1.3 4.36-1.3 1.64 0 2.93.47 3.87 1.41s1.64 2.16 2.11 3.65c.29.97.51 2.01.64 3.12.13 1.12.2 2.26.2 3.43 0 .88-.02 1.74-.07 2.57s-.12 1.62-.22 2.35-.24 1.42-.42 2.07c-.41 1.58-1.14 2.82-2.18 3.7-1.04.88-2.56 1.32-4.55 1.32Zm.35-3.21c.56 0 1.02-.15 1.39-.44.37-.29.66-.7.88-1.23.22-.53.37-1.11.46-1.76.09-.5.15-1 .18-1.52.03-.51.04-1.05.04-1.61v-1.67l-.09-2.93c-.03-.96-.12-1.81-.26-2.57-.18-.94-.47-1.69-.88-2.27-.41-.57-.98-.86-1.72-.86-.82 0-1.44.29-1.87.88-.43.59-.73 1.35-.9 2.29-.18.76-.28 1.6-.31 2.51-.03.91-.04 1.83-.04 2.77 0 .56 0 1.12.02 1.69.01.57.05 1.12.11 1.65.06.53.12 1.04.18 1.54.21 1.03.52 1.87.95 2.53.43.66 1.05.99 1.87.99Z" class="cls-1"/></svg>
